<svg xmlns="http://www.w3.org/2000/svg" xmlns:xlink="http://www.w3.org/1999/xlink" version="1.1" x="0px" y="0px" viewBox="0 0 100 125" enable-background="new 0 0 100 100" xml:space="preserve"><g><path fill="#FFFFFF" d="M50,5C25.3,5,5.2,25.1,5,49.7c-0.1,12,4.5,23.4,13,31.9c8.4,8.6,19.7,13.3,31.7,13.4c0,0,0.3,0,0.3,0   c24.7,0,44.8-20.1,45-44.7C95.2,25.5,75.1,5.2,50,5z M50,88.9h-0.3c-10.4-0.1-20.1-4.2-27.5-11.6C15,70,11,60.2,11.1,49.8   c0.1-21.3,17.6-38.7,39.2-38.7c21.5,0.1,38.8,17.7,38.7,39.2C88.8,71.6,71.3,88.9,50,88.9z"/><path fill="#FFFFFF" d="M78.6,46.1L51.8,25.4c-1-0.8-2.5-0.8-3.5,0L21.4,46.1c-1.3,1-1.5,2.8-0.5,4.1c1,1.3,2.8,1.5,4.1,0.5   l4.3-3.3v20.7c0,1.6,1.3,2.9,2.9,2.9h35.7c1.6,0,2.9-1.3,2.9-2.9V47.4l4.3,3.3c0.5,0.4,1.2,0.6,1.8,0.6c0.9,0,1.7-0.4,2.3-1.1   C80.1,48.9,79.8,47.1,78.6,46.1z M65,65.2H35V42.9l15-11.5l15,11.5V65.2z"/></g></svg>